<svg width="33" height="32" viewBox="0 0 33 32" fill="none" xmlns="http://www.w3.org/2000/svg">
    <mask id="mask0_96_2297" style="mask-type:alpha" maskUnits="userSpaceOnUse" x="0" y="0" width="33" height="32">
        <rect width="32" height="32" transform="matrix(0 1 1 0 0.5 0)" fill="#D9D9D9"/>
    </mask>
    <g mask="url(#mask0_96_2297)">
        <path d="M16.5 14.7334L9.26669 9.56672C8.82224 9.2556 8.36113 9.21672 7.88335 9.45005C7.40558 9.68338 7.16669 10.0778 7.16669 10.6334C7.16669 10.8556 7.21669 11.0667 7.31669 11.2667C7.41669 11.4667 7.55558 11.6223 7.73335 11.7334L16.5 18L25.2667 11.7334C25.4445 11.6223 25.5834 11.4667 25.6834 11.2667C25.7834 11.0667 25.8334 10.8556 25.8334 10.6334C25.8334 10.1 25.5945 9.71116 25.1167 9.46672C24.6389 9.22227 24.1778 9.2556 23.7334 9.56672L16.5 14.7334ZM16.5 22.6667L9.26669 17.5C8.82224 17.1889 8.36113 17.15 7.88335 17.3834C7.40558 17.6167 7.16669 18.0112 7.16669 18.5667C7.16669 18.7889 7.21669 19 7.31669 19.2C7.41669 19.4 7.55558 19.5556 7.73335 19.6667L16.5 25.9334L25.2667 19.6667C25.4445 19.5556 25.5834 19.4 25.6834 19.2C25.7834 19 25.8334 18.7889 25.8334 18.5667C25.8334 18.0334 25.5945 17.6445 25.1167 17.4C24.6389 17.1556 24.1778 17.1889 23.7334 17.5L16.5 22.6667Z" fill="#999999"/>
    </g>
</svg>

