<svg width="33" height="32" viewBox="0 0 33 32" fill="none" xmlns="http://www.w3.org/2000/svg">
    <mask id="mask0_96_2287" style="mask-type:alpha" maskUnits="userSpaceOnUse" x="0" y="0" width="33" height="32">
        <rect x="0.5" y="32" width="32" height="32" transform="rotate(-90 0.5 32)" fill="#D9D9D9"/>
    </mask>
    <g mask="url(#mask0_96_2287)">
        <path d="M16.5 17.2666L9.26669 22.4333C8.82224 22.7444 8.36113 22.7833 7.88335 22.55C7.40558 22.3166 7.16669 21.9222 7.16669 21.3666C7.16669 21.1444 7.21669 20.9333 7.31669 20.7333C7.41669 20.5333 7.55558 20.3777 7.73335 20.2666L16.5 14L25.2667 20.2666C25.4445 20.3777 25.5834 20.5333 25.6834 20.7333C25.7834 20.9333 25.8334 21.1444 25.8334 21.3666C25.8334 21.9 25.5945 22.2888 25.1167 22.5333C24.6389 22.7777 24.1778 22.7444 23.7334 22.4333L16.5 17.2666ZM16.5 9.33328L9.26669 14.5C8.82224 14.8111 8.36113 14.85 7.88335 14.6166C7.40558 14.3833 7.16669 13.9888 7.16669 13.4333C7.16669 13.2111 7.21669 13 7.31669 12.8C7.41669 12.6 7.55558 12.4444 7.73335 12.3333L16.5 6.06662L25.2667 12.3333C25.4445 12.4444 25.5834 12.6 25.6834 12.8C25.7834 13 25.8334 13.2111 25.8334 13.4333C25.8334 13.9666 25.5945 14.3555 25.1167 14.6C24.6389 14.8444 24.1778 14.8111 23.7334 14.5L16.5 9.33328Z" fill="#999999"/>
    </g>
</svg>

