<svg width="64" height="32" viewBox="0 0 64 32" fill="none" xmlns="http://www.w3.org/2000/svg">
<rect width="64" height="32" rx="4" fill="#A7773C"/>
<path d="M17.3 13.868L17 13.796C16.808 13.676 16.232 13.772 16.064 13.604L15.8 13.58L15.656 13.652C15.632 13.676 15.656 13.82 15.704 13.856C15.788 13.928 15.872 13.988 15.98 14.012C16.208 14.06 16.304 14.276 16.532 14.324C16.712 14.408 17.444 15.152 17.444 15.236L17.408 15.464C17.348 15.608 17.288 15.632 17.24 15.776C17.24 15.824 17.204 15.872 17.156 15.908C17.108 15.98 17 16.004 16.88 16.052C16.76 16.112 16.628 16.172 16.508 16.22C16.484 16.232 16.376 16.22 16.268 16.196C16.208 16.184 16.172 16.16 16.124 16.124C15.896 15.98 15.764 15.752 15.5 15.656C15.236 15.536 15.068 15.332 14.876 15.176C14.732 15.068 14.528 15.032 14.396 14.888L14.288 14.792L14.084 14.624L13.976 14.528C13.916 14.492 13.844 14.504 13.772 14.576C13.676 14.636 13.664 14.744 13.604 14.816C13.52 14.936 13.4 15.032 13.28 15.152L13.136 15.392C13.04 15.752 12.872 16.004 12.584 16.184L12.428 16.22C12.308 16.232 12.2 16.256 12.128 16.34C11.996 16.472 11.804 16.52 11.648 16.604C11.492 16.676 11.324 16.676 11.156 16.664C11.084 16.664 10.988 16.592 10.988 16.544V16.016C10.988 15.92 11.012 15.824 11.096 15.752C11.24 15.644 11.3 15.476 11.396 15.32C11.552 15.08 11.672 14.792 11.9 14.588C11.972 14.528 11.96 14.444 11.984 14.384C11.996 14.312 12.02 14.228 12.068 14.18C12.188 14.048 12.32 13.928 12.452 13.784C12.476 13.772 12.452 13.7 12.44 13.652L12.38 13.604C11.996 13.568 11.612 13.58 11.228 13.604L11.072 13.688L10.628 13.664C10.532 13.7 10.424 13.724 10.316 13.724C10.208 13.724 10.1 13.7 9.992 13.652C9.788 13.58 9.62 13.664 9.44 13.664L9.128 13.64C8.936 13.556 8.972 13.508 8.78 13.424C8.66 13.364 8.492 13.268 8.468 13.124C8.456 12.908 8.468 12.716 8.672 12.584C8.696 12.56 8.72 12.536 8.744 12.524L8.9 12.392C8.984 12.308 9.068 12.248 9.188 12.248C9.38 12.248 9.584 12.248 9.752 12.128H9.896L10.184 12.092H10.328L10.964 12.02L11.252 12.056L11.564 12.008L12.272 12.092H12.812L12.728 11.744L12.716 11.36L12.8 11.072C12.812 11.036 12.836 10.928 12.872 10.892C12.956 10.76 13.184 10.532 13.208 10.532L13.748 10.472L14.06 10.532L14.528 10.7L14.816 11.024L14.912 11.204L14.972 11.516L14.864 11.756L14.84 12.104V12.116L15.956 12.128H17.372L17.612 12.164C17.696 12.224 17.804 12.248 17.924 12.248C18.068 12.236 18.212 12.248 18.332 12.248C18.572 12.236 18.788 12.272 18.968 12.38C19.172 12.368 19.328 12.488 19.496 12.548C19.652 12.608 19.7 12.704 19.652 12.848L19.568 12.968V13.148L19.436 13.412C19.316 13.556 19.328 13.64 19.244 13.688L19.028 13.784L18.728 13.868H17.3ZM8.336 18.188L8.324 17.948C8.336 17.936 8.456 17.6 8.48 17.588C8.72 17.372 8.672 17.324 8.936 17.132C8.996 17.084 9.056 17.036 9.152 17.048H9.356L9.752 17.036H9.944C10.052 17.036 10.148 17.012 10.244 16.952L10.46 16.892C10.7 16.88 10.94 16.916 11.18 16.916L12.944 16.88L14.24 16.964L14.624 16.952H14.912L15.14 17.024L16.112 16.952H16.856L17.384 16.988L17.612 17.024C18.008 17.036 18.404 17.06 18.8 17.036C19.064 17.024 19.256 17.132 19.436 17.312C19.508 17.384 19.556 17.468 19.544 17.588C19.544 17.672 19.544 17.744 19.532 17.828C19.532 17.876 19.388 18.128 19.352 18.164C19.208 18.308 19.184 18.272 19.028 18.416C18.992 18.44 18.932 18.464 18.884 18.464C18.596 18.476 17.528 18.476 17.288 18.464L17.012 18.38H16.448C16.1 18.368 15.92 18.344 15.572 18.344C15.428 18.356 15.344 18.416 15.284 18.536L15.272 19.16L15.248 19.388C15.32 19.664 15.212 19.844 15.272 20.096C15.284 20.336 15.296 20.42 15.296 20.648C15.176 20.972 15.044 21.284 14.708 21.452C14.504 21.5 14.36 21.56 14.192 21.608C14.048 21.644 13.928 21.608 13.82 21.5C13.676 21.344 13.544 21.2 13.544 20.96L13.532 20.744C13.496 20.648 13.472 20.552 13.4 20.468C13.388 20.372 13.364 20.264 13.424 20.18C13.484 20.084 13.472 20.024 13.424 19.892L13.328 19.136C13.316 18.536 13.148 18.332 13.028 18.32H11.996L11.756 18.416H11.036L10.796 18.356L10.64 18.344C10.484 18.476 10.304 18.476 10.112 18.476H8.684C8.504 18.476 8.408 18.332 8.336 18.188ZM20.852 13.46L20.816 13.22C20.816 13.004 20.804 12.8 20.816 12.584L20.864 12.428C21.008 12.272 21.116 12.092 21.224 11.924C21.308 11.804 21.428 11.732 21.56 11.744C21.728 11.756 21.884 11.756 22.052 11.756L22.268 11.852C22.364 11.9 22.46 11.912 22.556 11.912C22.652 11.912 22.736 11.9 22.808 11.864L23.348 11.756C23.54 11.756 23.732 11.756 23.936 11.744H25.088C25.292 11.732 25.484 11.732 25.676 11.732L25.904 11.696L26.204 11.6C26.888 11.6 27.584 11.588 28.28 11.588C28.82 11.576 29.36 11.672 29.888 11.672L30.308 11.792L30.536 11.84C30.764 11.9 30.884 12.056 31.004 12.236L31.028 12.38L31.076 13.04C31.256 13.592 31.112 13.652 31.16 14.06V14.312L31.088 14.612C31.004 14.696 30.944 14.876 30.896 15.02C30.776 15.356 30.572 15.62 30.308 15.848L30.128 16.028L29.84 16.136L29.6 16.148C29.252 16.352 28.868 16.244 28.508 16.256C28.412 16.256 28.328 16.148 28.22 16.148H27.836C27.788 16.148 27.404 16.184 27.368 16.22C27.296 16.256 27.224 16.268 27.152 16.268C27.092 16.268 27.032 16.256 26.984 16.232L25.064 16.136H23.156L22.832 16.148C22.688 16.268 22.46 16.22 22.328 16.328C22.112 16.472 21.824 16.46 21.644 16.46L21.488 16.436C21.332 16.34 21.224 16.328 21.14 16.148C21.068 15.956 20.924 15.788 20.972 15.548L20.9 14.672L20.972 13.916C20.948 13.748 20.948 13.592 20.852 13.46ZM22.424 14.132C22.388 14.204 22.484 14.36 22.58 14.372H22.82C23.168 14.372 23.528 14.432 23.876 14.432C24.368 14.432 24.86 14.36 25.34 14.36L25.664 14.444C26.24 14.444 26.804 14.36 27.38 14.372H27.932L28.232 14.456C28.34 14.492 28.436 14.516 28.544 14.516C28.688 14.516 28.832 14.468 28.952 14.336L29.072 14.204C29.156 14.096 29 13.952 29 13.844C29 13.7 28.988 13.652 28.976 13.496L28.88 13.376C28.688 13.292 28.508 13.16 28.28 13.172C28.136 13.052 27.944 13.028 27.764 13.028L27.524 13.124L26.972 13.04L26.816 13.076C26.624 13.22 26.408 13.196 26.192 13.196C25.748 13.208 25.304 13.196 24.836 13.196C24.656 13.196 24.464 13.208 24.272 13.22C24.164 13.328 24.008 13.352 23.864 13.424L23.552 13.508C23.348 13.508 23.132 13.52 22.916 13.52C22.784 13.532 22.604 13.664 22.58 13.82C22.568 13.976 22.508 14 22.424 14.132ZM20.552 18.956L20.576 18.728C20.576 18.56 20.864 18.464 20.936 18.452H21.416L22.124 18.44L22.34 18.368C22.448 18.308 22.544 18.308 22.64 18.368C22.76 18.452 22.892 18.44 23.024 18.428C23.204 18.284 23.432 18.32 23.636 18.308C24.488 18.308 24.584 18.344 24.968 18.332L25.112 18.176L25.088 17.936C24.968 17.732 25.148 17.48 24.968 17.312C24.848 17.144 24.92 17.024 24.968 16.868C25.004 16.832 25.028 16.796 25.064 16.772L25.256 16.568C25.292 16.532 25.328 16.508 25.352 16.472C25.424 16.388 25.52 16.364 25.64 16.364H25.964C26.12 16.364 26.276 16.376 26.408 16.484L26.564 16.508C26.852 16.484 26.996 16.676 27.164 16.892V17.144L27.152 17.456C27.152 17.636 27.092 17.768 26.984 17.876L26.912 18.104C26.876 18.14 26.888 18.272 26.948 18.284H27.176L28.004 18.176C28.88 18.2 29 18.296 29.876 18.272H30.632L30.896 18.284C31.208 18.38 31.208 18.38 31.424 18.476C31.496 18.512 31.544 18.764 31.484 18.836C31.388 18.968 31.412 19.16 31.316 19.268L31.04 19.556L30.968 19.7C30.788 19.736 30.656 19.892 30.452 19.892L30.308 19.94C30.068 20.096 29.792 20.06 29.528 20.036L28.832 19.916L26.96 19.892L26.588 20.012L26.36 20.048C26.216 20.048 26.132 19.976 25.928 20.024L25.46 20.06C25.304 20.06 25.148 20.06 25.004 19.952L24.356 19.976C24.212 20.072 23.852 20.072 23.696 20.072L22.652 20L21.632 20.072C21.512 20.072 20.936 20.024 20.888 19.904C20.852 19.808 20.792 19.724 20.708 19.652C20.588 19.52 20.552 19.376 20.552 19.208V18.956ZM31.928 14.084L31.988 13.844C32.012 13.736 32.048 13.628 32.144 13.568C32.276 13.472 32.42 13.388 32.564 13.34C32.648 13.304 32.732 13.316 32.816 13.316L33.5 13.304H34.424C34.532 13.304 34.616 13.208 34.616 13.076C34.616 12.884 34.58 12.704 34.46 12.536C34.388 12.44 34.388 12.308 34.46 12.212C34.592 12.044 34.64 11.816 34.808 11.66C34.928 11.552 35.06 11.432 35.228 11.444C35.372 11.456 35.516 11.468 35.66 11.456C35.924 11.42 36.236 11.456 36.356 11.66L36.44 11.804C36.524 11.936 36.464 12.128 36.368 12.284C36.308 12.38 36.296 12.476 36.296 12.596C36.296 12.776 36.236 12.908 36.14 13.052C36.08 13.148 36.164 13.292 36.284 13.292L36.524 13.304C36.884 13.316 37.244 13.268 37.604 13.268C37.772 13.268 37.94 13.28 38.108 13.316L38.504 13.412L38.9 13.46C39.032 13.472 39.116 13.544 39.2 13.616C39.284 13.688 39.32 13.808 39.296 13.916C39.248 14.204 39.044 14.9 38.696 14.948L38.528 14.972C38.204 15.02 37.856 14.972 37.532 14.972C37.34 14.972 37.124 14.936 36.944 14.984L36.812 15.02L36.788 15.128C36.764 15.236 37.028 15.284 37.136 15.32C37.28 15.356 37.412 15.404 37.508 15.5C37.688 15.68 37.808 15.884 37.928 16.1C37.988 16.196 37.94 16.328 37.964 16.436L38.048 16.832L38.036 16.976L37.964 17.384L37.796 17.924L37.628 18.296L37.484 18.476C37.304 18.704 37.04 18.8 36.848 19.004C36.776 19.088 36.776 19.208 36.692 19.292C36.38 19.604 36.284 19.748 35.864 19.952C35.792 19.988 35.696 20 35.636 20.06C35.54 20.156 35.432 20.18 35.324 20.18C35.12 20.18 34.7 20.048 34.532 19.964L34.244 19.82C33.884 19.64 33.416 19.46 33.26 19.076L33.104 18.704L32.96 18.416V18.032L33.008 17.66C33.032 17.456 33.128 17.312 33.188 17.132L33.26 16.904C33.308 16.76 33.356 16.628 33.452 16.532C33.536 16.448 33.68 16.364 33.728 16.244C33.812 16.016 34.004 15.896 34.1 15.692L34.244 15.392L34.268 15.152C34.28 15.068 34.196 14.984 34.124 14.984L33.356 15.02C33.164 15.032 32.996 15.068 32.792 15.032L32.552 14.996C32.36 14.972 32.156 14.84 32 14.648C31.82 14.432 31.868 14.324 31.928 14.084ZM42.44 17.048L42.38 18.308L42.368 19.916L42.26 20.264C42.224 20.372 41.936 20.84 41.84 20.888L41.696 20.96C41.492 21.056 41.24 21.152 41.06 21.116L40.904 21.08C40.82 21.056 40.76 20.972 40.724 20.888C40.664 20.72 40.592 20.708 40.592 20.492V20.12L40.604 19.628C40.604 19.472 40.592 19.4 40.604 19.244L40.688 18.308L40.58 17.348L40.688 16.436L40.664 14.936C40.664 14.612 40.544 13.928 40.52 13.64C40.508 13.448 40.496 13.292 40.448 13.088L40.292 12.368C40.268 12.272 40.388 12.176 40.448 12.092L40.724 11.72C40.796 11.624 40.964 11.636 41.036 11.564C41.108 11.492 41.216 11.48 41.336 11.48L41.588 11.492C41.744 11.504 41.732 11.576 41.852 11.672C41.996 11.804 42.08 11.948 42.08 12.164C42.08 12.332 42.176 12.44 42.2 12.56L42.236 12.716L42.248 13.124C42.26 13.472 42.392 13.748 42.404 14.108L42.416 14.54C42.428 14.768 42.452 14.936 42.62 14.936C42.668 14.936 42.74 14.912 42.824 14.876L42.944 14.816C43.076 14.756 43.196 14.732 43.316 14.732C43.424 14.732 43.544 14.756 43.664 14.792L44.252 14.996L44.36 15.344V15.656L44.204 15.932C44.12 16.076 43.952 16.256 43.796 16.328L43.34 16.532H43.136L42.812 16.388H42.728C42.548 16.388 42.44 16.46 42.44 16.616V17.048ZM34.76 17.516L34.808 17.588C35 17.876 35.276 18.104 35.6 18.152L35.9 18.2L36.092 18.152C36.176 18.128 36.26 18.08 36.272 17.996C36.296 17.876 36.404 17.756 36.38 17.6L36.356 17.468C36.332 17.324 36.296 17.204 36.296 17.06C36.296 16.868 36.164 16.772 36.02 16.688L35.732 16.532C35.648 16.484 35.552 16.46 35.456 16.46C35.192 16.46 34.868 16.7 34.784 16.952C34.724 17.132 34.64 17.336 34.76 17.516ZM52.448 13.088L52.292 12.368C52.268 12.272 52.388 12.176 52.448 12.092L52.724 11.72C52.796 11.624 52.964 11.636 53.036 11.564C53.108 11.492 53.216 11.48 53.336 11.48L53.588 11.492C53.744 11.504 53.852 11.576 53.972 11.672C54.116 11.804 54.2 11.948 54.2 12.164C54.2 12.332 54.296 12.44 54.32 12.56L54.356 12.716L54.368 13.124C54.38 13.472 54.512 13.748 54.524 14.108L54.536 14.54C54.548 14.84 54.572 14.972 54.944 14.876L55.184 14.816C55.34 14.768 55.472 14.744 55.616 14.744C55.712 14.744 55.796 14.756 55.904 14.792L56.492 14.996L56.6 15.344V15.656L56.444 15.932C56.36 16.076 56.192 16.256 56.036 16.328L55.58 16.532H55.376L54.932 16.388H54.848C54.668 16.388 54.56 16.46 54.56 16.616V17.048L54.5 18.308L54.488 19.916L54.38 20.264C54.344 20.372 53.936 20.84 53.84 20.888L53.696 20.96C53.492 21.056 53.24 21.152 53.06 21.116L52.904 21.08C52.82 21.056 52.76 20.972 52.724 20.888C52.664 20.72 52.592 20.708 52.592 20.492V20.12L52.604 19.628C52.604 19.472 52.592 19.4 52.604 19.244L52.688 18.308L52.58 17.348L52.688 16.436L52.664 14.936C52.664 14.612 52.544 13.928 52.52 13.64C52.508 13.448 52.496 13.292 52.448 13.088ZM44.78 18.86L44.696 17.924C44.672 17.636 44.768 17.384 44.768 17.108C44.768 17.012 44.732 16.94 44.684 16.88C44.564 16.724 44.612 16.556 44.612 16.4C44.612 16.28 44.72 16.196 44.708 16.1L44.588 15.392L44.576 15.248L44.732 14.636C44.78 14.432 44.828 14.228 44.696 14.06L44.648 14C44.3 13.556 44.624 13.544 44.624 12.944C44.624 12.884 44.66 12.824 44.708 12.8C44.912 12.692 44.948 12.572 45.188 12.464C45.26 12.44 45.344 12.428 45.428 12.428C45.908 12.428 46.364 12.356 46.844 12.428L47.156 12.476C47.24 12.488 47.312 12.524 47.396 12.524L49.664 12.536C49.88 12.536 50.036 12.596 50.216 12.692C50.324 12.74 50.396 12.812 50.396 12.932V13.052L50.384 13.304V13.436C50.384 13.556 50.348 13.64 50.264 13.724C50.108 13.88 50.036 14.024 49.88 14.264C49.844 14.312 49.748 14.372 49.664 14.372C49.472 14.372 49.28 14.372 49.088 14.384L47.516 14.516C47.3 14.54 47.072 14.54 46.844 14.528C46.436 14.492 46.292 14.744 46.292 15.068C46.292 15.26 46.364 15.404 46.388 15.62L46.424 15.944C46.46 16.304 46.436 16.064 46.412 16.424L46.376 16.856C46.364 17.036 46.316 17.18 46.304 17.336C46.292 17.456 46.328 17.612 46.436 17.624L46.736 17.66C46.94 17.684 47.072 17.648 47.288 17.636L47.672 17.624L47.816 17.588C48.092 17.516 48.308 17.492 48.488 17.492C48.872 17.492 49.076 17.6 49.256 17.576C49.58 17.528 49.844 17.744 50.144 17.744C50.312 17.744 50.408 17.972 50.408 18.14C50.408 18.284 50.456 18.428 50.396 18.56L50.336 18.704L50.048 19.184L50.012 19.352C49.988 19.484 49.868 19.58 49.7 19.58H49.448L48.968 19.64H48.656L47.576 19.58C47.192 19.556 46.796 19.616 46.412 19.616C46.244 19.616 46.076 19.604 45.908 19.568L45.656 19.52C45.404 19.472 45.068 19.376 44.936 19.136L44.78 18.86Z" fill="white"/>
</svg>
