<svg width="33" height="32" viewBox="0 0 33 32" fill="none" xmlns="http://www.w3.org/2000/svg">
    <path fill-rule="evenodd" clip-rule="evenodd" d="M16.053 24.8421L8.14455 29.1747C7.51312 29.5028 6.73521 29.2705 6.38711 28.6499V28.6499C6.2864 28.4576 6.23206 28.2445 6.22845 28.0275V8.8299C6.22845 5.16857 8.73036 3.70404 12.3307 3.70404H20.7883C24.2788 3.70404 26.8905 5.07094 26.8905 8.58581V28.0275C26.8905 28.3738 26.753 28.7059 26.5081 28.9508C26.2632 29.1957 25.931 29.3333 25.5847 29.3333C25.3638 29.3298 25.1466 29.2755 24.95 29.1747L16.9928 24.8421C16.6995 24.6837 16.3462 24.6837 16.053 24.8421Z" stroke="#A6773C" stroke-width="2" stroke-linecap="round" stroke-linejoin="round"/>
    <path d="M11.6594 12.4302H21.3863" stroke="#A6773C" stroke-width="1.5" stroke-linecap="round" stroke-linejoin="round"/>
</svg>
