<svg width="48" height="48" viewBox="0 0 48 48" fill="none" xmlns="http://www.w3.org/2000/svg">
    <path d="M17.9794 43.0002C14.6594 43.0002 11.3194 41.7402 8.77938 39.2002C3.71938 34.1202 3.71938 25.8802 8.77938 20.8202C9.35938 20.2402 10.3194 20.2402 10.8994 20.8202C11.4794 21.4002 11.4794 22.3602 10.8994 22.9402C6.99937 26.8402 6.99937 33.1802 10.8994 37.0802C14.7994 40.9802 21.1394 40.9802 25.0394 37.0802C26.9194 35.2002 27.9594 32.6802 27.9594 30.0002C27.9594 27.3402 26.9194 24.8202 25.0394 22.9202C24.4594 22.3402 24.4594 21.3802 25.0394 20.8002C25.6194 20.2202 26.5794 20.2202 27.1594 20.8002C29.6194 23.2602 30.9594 26.5202 30.9594 30.0002C30.9594 33.4802 29.5994 36.7402 27.1594 39.2002C24.6394 41.7402 21.3194 43.0002 17.9794 43.0002Z" fill="#292D32"/>
    <path d="M38.1402 28.32C37.7602 28.32 37.3802 28.18 37.0802 27.88C36.5002 27.3 36.5002 26.34 37.0802 25.76C41.1802 21.66 41.1802 15 37.0802 10.92C32.9802 6.81998 26.3202 6.81998 22.2402 10.92C20.2602 12.9 19.1602 15.54 19.1602 18.34C19.1602 21.14 20.2602 23.78 22.2402 25.76C22.8202 26.34 22.8202 27.3 22.2402 27.88C21.6602 28.46 20.7002 28.46 20.1202 27.88C17.5802 25.34 16.1602 21.94 16.1602 18.34C16.1602 14.74 17.5602 11.34 20.1202 8.79998C25.3802 3.53998 33.9402 3.53998 39.2202 8.79998C44.4802 14.06 44.4802 22.64 39.2202 27.9C38.9202 28.18 38.5202 28.32 38.1402 28.32Z" fill="#292D32"/>
</svg>


