<svg width="33" height="32" viewBox="0 0 33 32" fill="none" xmlns="http://www.w3.org/2000/svg">
    <path fill-rule="evenodd" clip-rule="evenodd" d="M10.7603 17.8545C9.90063 17.8545 9.20222 17.1561 9.20222 16.2964C9.20222 15.4392 9.90063 14.7408 10.7603 14.7408C11.62 14.7408 12.3184 15.4392 12.3184 16.2964C12.3184 17.1561 11.62 17.8545 10.7603 17.8545ZM16.8175 17.8545C15.9578 17.8545 15.2594 17.1561 15.2594 16.2964C15.2594 15.4392 15.9578 14.7408 16.8175 14.7408C17.6771 14.7408 18.3756 15.4392 18.3756 16.2964C18.3756 17.1561 17.6771 17.8545 16.8175 17.8545ZM21.3166 16.2964C21.3166 17.1561 22.015 17.8545 22.8747 17.8545C23.7344 17.8545 24.4328 17.1561 24.4328 16.2964C24.4328 15.4392 23.7344 14.7408 22.8747 14.7408C22.015 14.7408 21.3166 15.4392 21.3166 16.2964Z" fill="white"/>
    <path fill-rule="evenodd" clip-rule="evenodd" d="M16.5267 2.66666C8.78 2.66666 3.16666 8.99482 3.16666 16.02C3.16666 18.2634 3.82 20.5722 4.96666 22.682C5.18 23.0305 5.20666 23.4699 5.06 23.8852L4.16666 26.8763C3.96666 27.5974 4.58 28.1302 5.26 27.9165L7.95333 27.1167C8.68666 26.8763 9.26 27.1821 9.94 27.5974C11.8867 28.7444 14.3133 29.3333 16.5 29.3333C23.1133 29.3333 29.8333 24.219 29.8333 15.98C29.8333 8.87464 24.1 2.66666 16.5267 2.66666Z" stroke="white" stroke-width="2" stroke-linecap="round" stroke-linejoin="round"/>
</svg>
