<svg width="16" height="17" viewBox="0 0 16 17" fill="none" xmlns="http://www.w3.org/2000/svg">
<rect x="0.5" y="1" width="15" height="15" rx="3.5" fill="#565758"/>
<rect x="0.5" y="1" width="15" height="15" rx="3.5" stroke="#565758"/>
<path fill-rule="evenodd" clip-rule="evenodd" d="M12.773 5.05553C12.9136 5.19618 12.9926 5.38691 12.9926 5.58578C12.9926 5.78466 12.9136 5.97539 12.773 6.11603L7.15151 11.7375C7.07722 11.8118 6.98903 11.8708 6.89195 11.911C6.79488 11.9512 6.69084 11.9719 6.58576 11.9719C6.48069 11.9719 6.37665 11.9512 6.27957 11.911C6.1825 11.8708 6.0943 11.8118 6.02001 11.7375L3.22701 8.94503C3.15538 8.87585 3.09824 8.79309 3.05894 8.70159C3.01963 8.61008 2.99894 8.51167 2.99808 8.41208C2.99721 8.3125 3.01619 8.21374 3.0539 8.12157C3.09161 8.0294 3.1473 7.94566 3.21772 7.87524C3.28814 7.80482 3.37188 7.74913 3.46405 7.71142C3.55622 7.67371 3.65498 7.65473 3.75456 7.6556C3.85415 7.65646 3.95256 7.67715 4.04407 7.71646C4.13557 7.75576 4.21833 7.8129 4.28751 7.88453L6.58551 10.1825L11.712 5.05553C11.7817 4.98584 11.8644 4.93055 11.9554 4.89283C12.0464 4.85511 12.144 4.83569 12.2425 4.83569C12.341 4.83569 12.4386 4.85511 12.5296 4.89283C12.6207 4.93055 12.7034 4.98584 12.773 5.05553Z" fill="white"/>
</svg>
