<svg width="28" height="28" viewBox="0 0 28 28" fill="none" xmlns="http://www.w3.org/2000/svg">
    <rect width="28" height="28" rx="4" fill="#E5E5E5"/>
    <path d="M13.5 9H12.5C10 9 9 10 9 12.5V15.5C9 18 10 19 12.5 19H15.5C18 19 19 18 19 15.5V14.5" stroke="#565758" stroke-width="1.5" stroke-linecap="round" stroke-linejoin="round"/>
    <path d="M16.0199 9.50988L12.0799 13.4499C11.9299 13.5999 11.7799 13.8949 11.7499 14.1099L11.5349 15.6149C11.4549 16.1599 11.8399 16.5399 12.3849 16.4649L13.8899 16.2499C14.0999 16.2199 14.3949 16.0699 14.5499 15.9199L18.4899 11.9799C19.1699 11.2999 19.4899 10.5099 18.4899 9.50988C17.4899 8.50988 16.6999 8.82988 16.0199 9.50988Z" stroke="#565758" stroke-width="1.5" stroke-miterlimit="10" stroke-linecap="round" stroke-linejoin="round"/>
    <path d="M15.4551 10.075C15.7901 11.27 16.7251 12.205 17.9251 12.545" stroke="#565758" stroke-width="1.5" stroke-miterlimit="10" stroke-linecap="round" stroke-linejoin="round"/>
</svg>

