<svg width="48" height="48" viewBox="0 0 48 48" fill="none" xmlns="http://www.w3.org/2000/svg">
    <g clip-path="url(#clip0_86_3003)">
        <path d="M18.947 41.001C12.427 33.8783 8.68635 29.7503 7.72502 28.617C6.28202 26.917 6.88802 24.997 10.5 24.997C14.112 24.997 16.195 30.282 18.947 30.282C18.963 30.2846 18.964 23.5256 18.95 10.005C18.9494 9.61076 19.0264 9.22028 19.1768 8.85585C19.3271 8.49143 19.5478 8.16021 19.8262 7.88113C20.1047 7.60205 20.4354 7.38058 20.7994 7.22939C21.1635 7.07819 21.5538 7.00024 21.948 6.99998H21.951C22.3456 6.99998 22.7363 7.07771 23.1008 7.22874C23.4654 7.37976 23.7966 7.60113 24.0755 7.88018C24.3545 8.15923 24.5757 8.49051 24.7266 8.85509C24.8775 9.21966 24.9552 9.6104 24.955 10.005V18.015C32.9284 19.223 37.263 19.8896 37.959 20.015C39.003 20.202 40.947 21.199 40.947 24.068V41.001H18.947Z" stroke="#999999" stroke-width="2" stroke-linejoin="round"/>
    </g>
    <defs>
        <clipPath id="clip0_86_3003">
            <rect width="48" height="48" fill="white" transform="matrix(-1 0 0 -1 48 48)"/>
        </clipPath>
    </defs>
</svg>


