<svg width="33" height="32" viewBox="0 0 33 32" fill="none" xmlns="http://www.w3.org/2000/svg">
    <path d="M12.7103 27.695V23.6061C12.7102 22.566 13.5581 21.7209 14.6087 21.714H18.4568C19.5123 21.714 20.368 22.5611 20.368 23.6061V23.6061V27.7077C20.3677 28.5908 21.0797 29.3125 21.9714 29.3332H24.5368C27.0941 29.3332 29.1673 27.2807 29.1673 24.7489V24.7489V13.117C29.1537 12.1209 28.6813 11.1856 27.8846 10.5772L19.1109 3.58024C17.5739 2.36193 15.3889 2.36193 13.8519 3.58024L5.11668 10.5899C4.317 11.1959 3.84383 12.1327 3.83398 13.1296V24.7489C3.83398 27.2807 5.90715 29.3332 8.46453 29.3332H11.0299C11.9438 29.3332 12.6846 28.5998 12.6846 27.695V27.695" stroke="#565758" stroke-width="2.5" stroke-linecap="round" stroke-linejoin="round"/>
</svg>

