<svg width="33" height="32" viewBox="0 0 33 32" fill="none" xmlns="http://www.w3.org/2000/svg">
    <path d="M18.2255 3.49174C17.7078 3.17036 17.11 3 16.5 3C15.89 3 15.2922 3.17036 14.7745 3.49174L3.537 10.4711C3.06647 10.7632 2.67843 11.1699 2.40951 11.6529C2.14058 12.1359 1.99964 12.6791 2 13.2314V24.3057C2 25.5507 2.49649 26.7447 3.38026 27.6251C4.26403 28.5054 5.46267 29 6.7125 29H26.2875C26.9064 29 27.5191 28.8786 28.0909 28.6427C28.6626 28.4068 29.1821 28.061 29.6197 27.6251C30.0573 27.1892 30.4045 26.6717 30.6413 26.1021C30.8781 25.5326 31 24.9221 31 24.3057V13.2299C31 12.1091 30.42 11.0662 29.463 10.4726L18.2255 3.49174ZM15.9243 5.32903C16.097 5.22171 16.2965 5.16482 16.5 5.16482C16.7035 5.16482 16.903 5.22171 17.0757 5.32903L27.5766 11.8534L16.5 17.6614L5.42345 11.8549L15.9243 5.32903ZM4.175 13.6474L15.9925 19.8439C16.1489 19.9261 16.3231 19.9691 16.5 19.9691C16.6769 19.9691 16.8511 19.9261 17.0075 19.8439L28.825 13.6474V24.3057C28.825 24.9761 28.5577 25.619 28.0818 26.093C27.6059 26.5671 26.9605 26.8334 26.2875 26.8334H6.7125C6.03951 26.8334 5.39409 26.5671 4.91822 26.093C4.44234 25.619 4.175 24.9761 4.175 24.3057V13.6474Z" fill="white"/>
</svg>
