<svg width="33" height="32" viewBox="0 0 33 32" fill="none" xmlns="http://www.w3.org/2000/svg">
    <path d="M16.5 16C20.18 16 23.1667 13.32 23.1667 10C23.1667 6.68 20.18 4 16.5 4V16ZM16.5 16C16.5 19.68 19.18 22.6667 22.5 22.6667C25.82 22.6667 28.5 19.68 28.5 16H16.5ZM16.5 16C12.82 16 9.83333 18.68 9.83333 22C9.83333 25.32 12.82 28 16.5 28V16ZM16.5 16C16.5 12.32 13.82 9.33333 10.5 9.33333C7.18 9.33333 4.5 12.32 4.5 16H16.5Z" stroke="white" stroke-width="2" stroke-linecap="round" stroke-linejoin="round"/>
</svg>
