<svg width="32" height="33" viewBox="0 0 32 33" fill="none" xmlns="http://www.w3.org/2000/svg">
    <path d="M21.3333 3.16675H10.6667C9.95942 3.16675 9.28115 3.4477 8.78105 3.9478C8.28095 4.44789 8 5.12617 8 5.83341V27.1667C8 27.874 8.28095 28.5523 8.78105 29.0524C9.28115 29.5525 9.95942 29.8334 10.6667 29.8334H21.3333C22.0406 29.8334 22.7189 29.5525 23.219 29.0524C23.719 28.5523 24 27.874 24 27.1667V5.83341C24 5.12617 23.719 4.44789 23.219 3.9478C22.7189 3.4477 22.0406 3.16675 21.3333 3.16675ZM17.3333 28.5001H14.6667V27.1667H17.3333V28.5001ZM21.3333 25.8334H10.6667V7.16675H21.3333V25.8334Z" fill="white"/>
</svg>


