<svg width="48" height="48" viewBox="0 0 48 48" fill="none" xmlns="http://www.w3.org/2000/svg">
    <path d="M9.86217 6.85693C8.1572 6.85693 6.52207 7.53423 5.31648 8.73982C4.11089 9.94541 3.43359 11.5805 3.43359 13.2855V32.9998C3.43359 34.7048 4.11089 36.3399 5.31648 37.5455C6.52207 38.7511 8.1572 39.4284 9.86217 39.4284H38.141C39.846 39.4284 41.4811 38.7511 42.6867 37.5455C43.8923 36.3399 44.5696 34.7048 44.5696 32.9998V13.2855C44.5696 11.5805 43.8923 9.94541 42.6867 8.73982C41.4811 7.53423 39.846 6.85693 38.141 6.85693H9.86217ZM6.00502 13.2855C6.00502 12.2625 6.4114 11.2814 7.13475 10.5581C7.85811 9.83474 8.83919 9.42836 9.86217 9.42836H38.141C39.164 9.42836 40.1451 9.83474 40.8684 10.5581C41.5918 11.2814 41.9982 12.2625 41.9982 13.2855V14.6209L23.9982 23.8404L6.00502 14.6244V13.2855ZM6.00502 17.5146L23.4119 26.4289C23.5933 26.5219 23.7943 26.5704 23.9982 26.5704C24.202 26.5704 24.403 26.5219 24.5845 26.4289L41.9982 17.5112V33.0015C41.9982 34.0245 41.5918 35.0056 40.8684 35.7289C40.1451 36.4523 39.164 36.8587 38.141 36.8587H9.86388C8.8409 36.8587 7.85982 36.4523 7.13647 35.7289C6.41311 35.0056 6.00674 34.0245 6.00674 33.0015L6.00502 17.5146Z" fill="#565758"/>
</svg>

