<svg width="72" height="72" viewBox="0 0 72 72" fill="none" xmlns="http://www.w3.org/2000/svg">
    <g clip-path="url(#clip0_963_10084)">
        <path d="M18.8038 12.0005C15.0461 12.0005 12 15.0465 12 18.8027V53.197C12 56.9547 15.0461 60.0007 18.8038 60.0007H53.1979C56.9556 60.0007 60.0003 56.9547 60.0003 53.1969V18.8028C60.0003 15.0466 56.9557 12.0006 53.1979 12.0006L18.8038 12.0005Z" fill="#FAE000"/>
        <path d="M36.1794 18.2268C29.231 18.2226 23.6182 23.8061 23.6084 30.7157C23.6029 33.8493 24.8911 36.5248 26.8313 38.8076C30.3703 42.9692 33.4678 47.3521 35.1585 52.6126C35.3104 53.0862 35.5389 53.6266 36.1921 53.6099C36.9024 53.5917 37.0931 52.9873 37.2617 52.4762C38.8481 47.6627 41.4998 43.5053 44.8494 39.7282C46.8397 37.4845 48.4371 34.8981 48.7046 31.8591C49.3577 24.4552 43.5026 18.1251 36.1794 18.2268ZM40.4525 30.834C40.4357 33.121 38.4232 35.121 36.16 35.1001C33.8759 35.0792 31.8939 33.0721 31.9023 30.7936C31.9107 28.5165 33.9246 26.5193 36.2003 26.5304C38.4733 26.5402 40.4692 28.5611 40.4525 30.834Z" fill="#007DFC"/>
    </g>
    <defs>
        <clipPath id="clip0_963_10084">
            <rect width="48" height="48" fill="white" transform="translate(12 12)"/>
        </clipPath>
    </defs>
</svg>


