<svg width="32" height="32" viewBox="0 0 32 32" fill="none" xmlns="http://www.w3.org/2000/svg">
    <rect width="32" height="32" rx="4" fill="#E5E5E5"/>
    <g clip-path="url(#clip0_597_9269)">
        <path d="M22.2161 9.64478C21.7369 9.18557 21.2082 8.95288 20.6439 8.95288C19.7615 8.95288 19.1178 9.52294 18.9416 9.69757C18.6937 9.94301 10.2385 18.4013 10.2385 18.4013C10.1831 18.457 10.1431 18.5261 10.1224 18.6019C9.9317 19.3066 8.97654 22.4331 8.96705 22.4646C8.91802 22.6247 8.96177 22.7991 9.07988 22.9172C9.16319 23.0003 9.27605 23.0469 9.39371 23.047C9.43923 23.047 9.48518 23.0401 9.53005 23.0254C9.56238 23.0148 12.7897 21.9717 13.3208 21.8132C13.3908 21.792 13.4547 21.7541 13.5068 21.7027C13.8424 21.3711 21.7285 13.5728 22.252 13.0322C22.7934 12.4742 23.0624 11.8931 23.0521 11.3055C23.0413 10.7253 22.76 10.1667 22.2161 9.64478ZM18.8015 11.1042C19.0256 11.1586 19.5541 11.336 20.0939 11.8806C20.6393 12.4309 20.7869 13.0599 20.8144 13.203C19.0848 14.9236 15.1036 18.8625 13.5342 20.415C13.3893 20.0774 13.155 19.6708 12.7783 19.2912C12.3182 18.8276 11.8499 18.5656 11.4888 18.4183C13.042 16.8649 17.0982 12.807 18.8015 11.1042ZM10.8915 19.1607C11.1332 19.225 11.6353 19.4112 12.1471 19.9272C12.5412 20.3246 12.7273 20.7629 12.8108 21.0302C12.1994 21.2268 10.8607 21.6889 10.01 21.9631C10.262 21.1337 10.6878 19.8421 10.8915 19.1607ZM21.6136 12.4036C21.5858 12.4319 21.5581 12.4601 21.5302 12.4882C21.3912 12.1302 21.1473 11.6701 20.725 11.2443C20.2935 10.8093 19.8559 10.5526 19.5051 10.4009C19.535 10.3712 19.5581 10.3479 19.5671 10.3391C19.6175 10.2894 20.0743 9.85281 20.6437 9.85281C20.9714 9.85281 21.2931 10.0024 21.6006 10.2971C21.965 10.6465 22.1528 10.9914 22.159 11.3224C22.1649 11.6602 21.9815 12.024 21.6136 12.4036Z" fill="#565758" stroke="#565758" stroke-width="0.5"/>
    </g>
    <defs>
        <clipPath id="clip0_597_9269">
            <rect width="16" height="16" fill="white" transform="translate(8 8)"/>
        </clipPath>
    </defs>
</svg>
