<svg width="20" height="20" viewBox="0 0 20 20" fill="none" xmlns="http://www.w3.org/2000/svg">
    <g clip-path="url(#clip0_597_11150)">
        <path d="M17.7716 2.05604C17.1726 1.48202 16.5118 1.19116 15.8063 1.19116C14.7034 1.19116 13.8987 1.90374 13.6785 2.12202C13.3686 2.42883 2.79958 13.0017 2.79958 13.0017C2.7303 13.0713 2.68029 13.1577 2.65444 13.2525C2.41609 14.1333 1.22214 18.0415 1.21028 18.0808C1.14899 18.2809 1.20368 18.4989 1.35131 18.6466C1.45545 18.7504 1.59652 18.8087 1.7436 18.8088C1.8005 18.8088 1.85794 18.8002 1.91403 18.7818C1.95444 18.7686 5.98853 17.4647 6.65243 17.2665C6.74002 17.2401 6.81986 17.1927 6.88501 17.1285C7.30452 16.7139 17.1621 6.96601 17.8164 6.29027C18.4933 5.59281 18.8295 4.86649 18.8166 4.13192C18.8031 3.40669 18.4515 2.70841 17.7716 2.05604ZM13.5034 3.88037C13.7835 3.94828 14.4441 4.1701 15.1188 4.8508C15.8006 5.53864 15.985 6.32489 16.0194 6.50386C13.8575 8.65451 8.88098 13.5782 6.9192 15.5188C6.73803 15.0968 6.44525 14.5885 5.9743 14.114C5.3992 13.5345 4.81389 13.2071 4.36248 13.0229C6.30392 11.0812 11.3742 6.00876 13.5034 3.88037ZM3.61583 13.951C3.91796 14.0313 4.54557 14.2641 5.18531 14.9091C5.67796 15.4058 5.91054 15.9537 6.01501 16.2878C5.25074 16.5335 3.57734 17.1111 2.51397 17.4539C2.82903 16.4172 3.36124 14.8027 3.61583 13.951ZM17.0184 5.50453C16.9838 5.5399 16.949 5.57518 16.9142 5.61037C16.7405 5.16279 16.4356 4.58769 15.9077 4.05546C15.3684 3.51168 14.8213 3.19085 14.3828 3.00116C14.4202 2.96405 14.4491 2.93489 14.4603 2.92391C14.5233 2.86176 15.0943 2.31608 15.806 2.31608C16.2157 2.31608 16.6179 2.50302 17.0022 2.8714C17.4577 3.30824 17.6925 3.73931 17.7002 4.15305C17.7076 4.57532 17.4783 5.03003 17.0184 5.50453Z" fill="#565758" stroke="#565758" stroke-width="0.5"/>
    </g>
    <defs>
        <clipPath id="clip0_597_11150">
            <rect width="20" height="20" fill="white"/>
        </clipPath>
    </defs>
</svg>


