<svg width="24" height="24" viewBox="0 0 24 24" fill="none" xmlns="http://www.w3.org/2000/svg">
    <path d="M18.0242 16.9569C16.8533 18.1241 15.363 18.9185 13.7412 19.24C12.1194 19.5614 10.4388 19.3956 8.91115 18.7633C7.3835 18.131 6.07723 17.0606 5.15702 15.6871C4.2368 14.3135 3.74382 12.6982 3.74023 11.0449" stroke="#565758" stroke-width="1.5" stroke-miterlimit="10" stroke-linecap="round"/>
    <path d="M17.3501 21.2501L18.1821 17.8781C18.2204 17.7311 18.2285 17.5779 18.2059 17.4278C18.1833 17.2776 18.1305 17.1336 18.0507 17.0044C17.9709 16.8752 17.8657 16.7635 17.7415 16.6762C17.6173 16.5888 17.4766 16.5275 17.3281 16.4961L13.9561 15.6531" stroke="#565758" stroke-width="1.5" stroke-linecap="round" stroke-linejoin="round"/>
    <path d="M5.97656 7.04294C7.14748 5.87542 8.63786 5.08073 10.2598 4.75907C11.8817 4.43742 13.5626 4.6032 15.0905 5.23552C16.6183 5.86783 17.9247 6.93837 18.845 8.31215C19.7653 9.68592 20.2582 11.3014 20.2616 12.9549" stroke="#565758" stroke-width="1.5" stroke-miterlimit="10" stroke-linecap="round"/>
    <path d="M6.65028 2.75L5.81828 6.122C5.78012 6.26901 5.77215 6.42223 5.79485 6.57241C5.81756 6.72258 5.87046 6.8666 5.95037 6.99576C6.03028 7.12493 6.13553 7.23655 6.25978 7.32391C6.38403 7.41126 6.5247 7.47252 6.67328 7.504L10.0443 8.347" stroke="#565758" stroke-width="1.5" stroke-linecap="round" stroke-linejoin="round"/>
</svg>


